<?xml version="1.0" encoding="UTF-8"?>
<svg id="_图层_1" data-name="图层 1" xmlns="http://www.w3.org/2000/svg" viewBox="0 0 38.98 15.79">
  <path d="M8.27,3.73c.06-.06,.12-.09,.19-.09s.12,0,.19,.02c.16-.04,.35-.02,.54,.07s.27,.23,.21,.45c-.05,.22-.09,.42-.13,.62s-.07,.4-.11,.63c.04,.54,.08,1.06,.13,1.56s.11,1.03,.2,1.58c0,.38,.04,.74,.09,1.08s.15,.72,.29,1.12c.05,.14,.02,.24-.09,.31s-.22,.1-.33,.11c-.1-.02-.2-.05-.28-.08s-.17-.07-.26-.11c-.1-.02-.18-.03-.25-.05s-.14-.07-.22-.16c-.08-.05-.15-.09-.21-.1s-.12-.03-.19-.06c-.27-.17-.49-.36-.66-.55s-.35-.42-.51-.67c-.05-.08-.07-.13-.04-.16s.08-.02,.15,.02c.18,.08,.36,.15,.53,.23s.37,.15,.59,.22c.16,.03,.29,0,.39-.08s.14-.22,.13-.42c-.04-.52-.07-1.03-.09-1.51s-.07-1-.14-1.54c0-.09-.03-.15-.07-.18s-.09-.03-.14,0c-.17,.02-.33,.03-.49,.05s-.31,.06-.47,.13c-.1,.05-.19,.11-.27,.16s-.18,.11-.29,.16c-.1,.05-.15,.11-.14,.18s.07,.12,.19,.12c.11-.03,.2-.07,.28-.11s.17-.06,.28-.06c.06,0,.15,0,.25,.02s.18,.08,.22,.16c-.03,.09-.08,.2-.16,.31s-.16,.23-.26,.35c-.05,.05-.11,.08-.18,.11s-.1,.07-.11,.12c0,.04,.02,.08,.07,.11s.07,.08,.07,.12c-.06,.09-.14,.15-.22,.18s-.17,.05-.25,.05c-.15,.03-.24,.08-.27,.13s-.04,.15-.04,.29c.03,.23,.06,.46,.09,.67s.02,.44-.02,.69c-.03,.16-.1,.25-.21,.25s-.19-.07-.24-.2c-.05-.18-.13-.32-.23-.42s-.23-.19-.4-.26c-.09-.07-.12-.12-.09-.13s.09-.04,.16-.05c.11-.02,.18-.06,.22-.12s.05-.13,.04-.23c-.02-.09-.05-.16-.08-.19s-.09-.04-.18-.02c-.14,.04-.25,.06-.33,.06s-.19-.06-.33-.18c-.16-.02-.29-.1-.39-.22s-.18-.25-.27-.39c.02-.2,.08-.37,.19-.53s.27-.2,.49-.12c.07,0,.13,0,.18-.03s.11-.05,.17-.09c.09-.05,.13-.09,.11-.11s-.07-.02-.15-.01c-.12,.02-.21,.01-.27-.04s-.08-.13-.08-.25c.02-.09,0-.14-.04-.16s-.1-.02-.18,.02c-.1,.02-.2,.06-.29,.12s-.2,.12-.32,.21c-.13,.07-.24,.12-.33,.15s-.14,.14-.16,.34l-.3,1.97c.02,.13,.03,.27,.04,.41s0,.29-.02,.46c0,.15-.05,.24-.14,.29s-.19,.02-.3-.08c-.26-.25-.43-.54-.52-.87s-.1-.63-.05-.91c.16-.5,.26-.98,.29-1.45s.07-.96,.13-1.48c.09-.3,.21-.49,.33-.55s.33-.03,.6,.11c.16,.14,.32,.2,.46,.17s.3-.08,.48-.17c.05-.06,.07-.13,.06-.2s-.03-.11-.09-.13c-.09-.02-.17-.04-.23-.06s-.12-.03-.19-.01c-.1,0-.15-.03-.16-.07s.04-.08,.13-.12l.14-.07s.09-.05,.15-.08,.11-.07,.16-.11c.12-.04,.24-.07,.37-.09s.25-.03,.36-.02c.16,.02,.26,.07,.3,.15s.01,.19-.06,.35c-.06,.13-.11,.26-.15,.38s-.07,.25-.11,.39c0,.04,0,.08,0,.12s.06,.07,.13,.09l.33-.12c.09-.08,.15-.11,.18-.09s.08,.06,.18,.13c.09,0,.19,.03,.3,.08s.19,.13,.26,.25c.05,.09,.12,.13,.19,.12s.12-.07,.14-.16c.04-.27,.06-.53,.05-.76s0-.49,.04-.76c.02-.16,.09-.29,.23-.39s.27-.07,.38,.08l-.05,.52c0,.08,0,.13,.04,.17s.09,.03,.18,0c.09-.02,.16-.04,.23-.06s.16-.02,.26,.01c.08,.02,.13,.05,.15,.09s-.01,.1-.1,.16c-.12,.04-.24,.07-.35,.09s-.22,.06-.33,.12c-.13,.09-.2,.2-.19,.32s.09,.17,.26,.15c.12-.02,.24-.04,.36-.08s.24-.1,.35-.18c.04-.09,.05-.19,.05-.28l-.02-.28c.05-.09,.09-.2,.11-.33s0-.24-.06-.3l-.59-.14c-.12-.1-.13-.17-.02-.22s.2-.07,.28-.09l.16-.09Zm-.66-2.86c.14-.07,.29-.07,.46-.01s.25,.19,.27,.39c.03,.19,.12,.35,.28,.5s.33,.26,.52,.35c.09,.03,.13,.08,.12,.15s-.04,.13-.12,.18l-1.55,.49c-.16,.15-.27,.3-.33,.45s-.17,.3-.3,.47c-.12,.18-.27,.2-.44,.06s-.2-.28-.1-.42c.05-.08,.1-.16,.12-.23s.06-.16,.09-.23c0-.09-.02-.15-.05-.18s-.1-.03-.18,0c-.09,.04-.18,.06-.27,.07s-.18,0-.29,0c-.2,.05-.35,.13-.43,.23s-.1,.25-.04,.45c.02,.23-.02,.36-.12,.4s-.25-.02-.44-.19c-.08-.11-.15-.2-.21-.27s-.15-.07-.26-.01c-.23,.07-.43,.13-.61,.17s-.38,.12-.59,.23c-.05,0-.09,.01-.13,.01s-.08,0-.13-.01l-.05-.02c-.16-.2-.25-.39-.25-.57s.13-.32,.39-.41c.13-.05,.26-.08,.39-.09s.26-.03,.41-.05c.07,0,.12-.03,.16-.08s.02-.1-.04-.18c-.09-.23-.14-.45-.15-.66s0-.44,.04-.67c.02-.12,.05-.19,.11-.21s.14,0,.24,.05c.22,.09,.4,.18,.53,.29s.26,.29,.36,.55l.15,.29c.04,.07,.06,.18,.06,.32,0,.09,.05,.16,.12,.19s.16,.03,.26,0l.73-.12c.07-.02,.16-.04,.26-.05s.19-.05,.26-.14c.07-.22,.14-.42,.21-.6s.16-.38,.29-.59c.03-.08,.07-.14,.12-.18s.1-.07,.16-.08ZM3.82,5.48c-.14,.07-.23,.14-.27,.22s-.05,.18-.04,.32c0,.14,0,.25,.04,.34s.15,.11,.33,.06l.61-.19c.11-.07,.16-.14,.14-.21s-.07-.16-.16-.26c-.08-.02-.15-.05-.22-.07s-.14-.06-.22-.12l-.21-.09Zm.02,3.47c.04-.06,.08-.09,.12-.09s.09,.03,.13,.09c.11,.12,.22,.17,.34,.15s.25-.08,.39-.15c.09-.04,.16-.03,.19,.02s.03,.12,0,.19c-.1,.14-.22,.26-.36,.35s-.28,.19-.42,.31c-.26,.03-.39-.06-.41-.28s-.01-.41,.01-.59Zm1.17-1.29c-.09,.09-.12,.21-.08,.35s.11,.19,.22,.17c.11-.05,.14-.14,.08-.29s-.13-.22-.22-.22Zm.77-1.78s-.03-.03-.04-.05-.03,0-.06,.02l-.47,.4s-.06,.03-.08,.06,0,.07,.03,.1c.23,.05,.39,.02,.47-.08s.12-.25,.14-.46Zm-.19,1.48s-.08,.04-.12,.06-.05,.06-.05,.11c.09,.16,.16,.2,.21,.13s.03-.17-.04-.3Zm1.12,1.24s.05-.06,.09-.07,.09,0,.12,0c.24-.03,.46-.02,.64,.04s.4,.17,.65,.33c.08,.1,.11,.18,.08,.25s-.09,.08-.2,.06c-.16-.05-.31-.1-.45-.13s-.3-.12-.46-.24c-.11-.06-.22-.08-.35-.06s-.16-.04-.12-.18Zm.33-1.66c-.07,.02-.11,.06-.11,.12s.04,.1,.11,.13c.06-.03,.1-.07,.1-.13s-.03-.1-.1-.13Z"/>
  <path d="M14.19,5.34c-.37-.38-.32-.63,.13-.73s.82-.08,1.09,.08c.08,.03,.17,.07,.28,.12s.21,.12,.3,.21c.09,.11,.14,.22,.15,.32s-.02,.21-.11,.31c-.04,.05-.04,.07-.02,.08s.06,0,.09,0l.05-.02c.13-.04,.25-.09,.34-.15s.19-.13,.29-.23c.11,0,.22,0,.32,0s.21,0,.31,.02c.3,.11,.44,.27,.43,.49s-.15,.4-.43,.54c-.11,.05-.23,.1-.36,.15s-.26,.13-.39,.25c-.05,.41-.11,.81-.16,1.19s-.08,.79-.08,1.22c0,.09,.01,.15,.06,.17s.12,.03,.19,.02l1.03-.26c.21-.04,.42-.04,.62,0s.41,.16,.63,.38c.14,.1,.19,.23,.15,.39s-.14,.24-.29,.25c-.32-.04-.61-.01-.88,.08s-.56,.14-.88,.16c-.08-.02-.13-.04-.16-.08s0-.09,.09-.16l.4-.23c.06-.05,.09-.09,.09-.11s-.03-.04-.09-.05c-.15,.03-.29,.07-.43,.13s-.28,.09-.42,.11c-.09,0-.14,.03-.16,.06s-.05,.1-.07,.19c-.03,.1-.09,.17-.16,.2s-.16,.01-.23-.06c-.08-.09-.15-.14-.21-.15s-.12,0-.19,.04c-.09,.02-.17,.04-.24,.06s-.15,.05-.23,.08c-.44,.18-.85,.37-1.25,.56s-.81,.48-1.24,.87c-.16,.13-.29,.26-.4,.39s-.2,.26-.28,.38c-.17,.12-.31,.18-.42,.15s-.19-.12-.26-.29c-.05-.09-.08-.17-.11-.23s-.04-.12-.06-.19c0-.15,0-.28-.02-.4s-.02-.25-.02-.39c.08-.11,.15-.21,.21-.3s.15-.15,.26-.17c.09-.05,.16-.13,.21-.22s.11-.17,.16-.25c.03-.07,.07-.14,.13-.2s.12-.09,.2-.08c.07,.02,.12,.07,.15,.15s.05,.16,.06,.22c.04,.12,.08,.2,.12,.23s.12,.04,.26,0l.8-.3c.1-.04,.16-.08,.17-.13s0-.11-.03-.2c-.21-.3-.3-.62-.26-.97s.13-.67,.28-.98c.02-.08,.02-.13,.01-.16s-.05-.03-.13,0c-.12,.02-.23,.06-.34,.1s-.23,.1-.36,.16c-.17,.09-.34,.15-.51,.16s-.34-.03-.52-.13c-.23-.2-.32-.4-.27-.63s.13-.44,.25-.64c.1-.13,.25-.2,.45-.21s.32,.05,.38,.16c.04,.07,.09,.1,.15,.09s.12-.02,.18-.02c.23-.05,.45-.12,.65-.21s.41-.15,.64-.22c.09-.03,.21-.07,.35-.13s.23-.12,.28-.2c-.15,0-.35-.03-.62-.05s-.31-.15-.13-.37c.09-.08,.15-.14,.16-.2s-.03-.12-.13-.2Zm2.3,5.34c.14-.03,.27-.03,.38,0s.24,.07,.39,.11c.12,.08,.18,.16,.18,.24s-.07,.16-.2,.23c-.16,.03-.32,.08-.5,.13s-.33,.17-.46,.33c-.07,.22-.11,.45-.13,.7s-.01,.49,.01,.73c0,.2,0,.4,0,.6s.03,.41,.09,.64c.02,.15-.02,.26-.09,.34s-.2,.13-.35,.15c-.44,.03-.86,.01-1.27-.06s-.84-.25-1.31-.53c-.14-.17-.18-.33-.13-.48s.18-.18,.39-.08c.19,.04,.37,.07,.54,.08s.35,.01,.54-.01c.4-.11,.64-.25,.73-.43s.12-.44,.09-.79c0-.09-.01-.19-.01-.3s-.03-.21-.08-.29c-.08-.03-.16-.04-.25-.01s-.17,.07-.24,.13c-.22,.07-.43,.12-.62,.16s-.4,0-.62-.11c-.25-.25-.31-.44-.18-.57s.32-.18,.58-.13c.35-.09,.69-.2,1.01-.3s.66-.22,1.03-.33l.49-.16Zm-1.45-1.52c-.12,.03-.21,.11-.24,.23s-.06,.23-.09,.33c0,.05,.01,.07,.04,.08s.06,.01,.1,.01c.09-.02,.17-.04,.26-.06s.17-.05,.26-.08c.12-.05,.18-.13,.16-.26s-.06-.21-.13-.25h-.35Zm.87-1.15s-.08,0-.09,0-.03,.02-.05,.05c-.11,.05-.21,.09-.3,.12s-.19,.05-.29,.07c-.13,.02-.19,.1-.18,.22s.09,.18,.22,.18c.09,0,.18,.01,.29,.06s.17,.13,.21,.25c.06,.07,.11-.04,.15-.34s.05-.5,.04-.6Zm0-.91l-.09-.02c-.08,.03-.17,.06-.26,.1s-.18,.1-.25,.21c-.05,.06-.07,.11-.06,.15s.06,.07,.16,.08c.06,0,.12,0,.19,.02s.13,.05,.21,.09c.09,.08,.15,0,.16-.21s0-.36-.05-.42Z"/>
  <path d="M24.49,4.96c0-.13,.02-.26,.05-.37s.08-.24,.14-.38c.13-.21,.29-.29,.49-.25s.33,.17,.43,.37c.02,.11,.06,.2,.12,.26s.16,.13,.28,.18c.09,.04,.17,.1,.23,.17s.09,.16,.09,.25c-.04,.1-.1,.18-.19,.23s-.17,.1-.26,.15c-.18,.07-.29,.17-.32,.3s.05,.23,.25,.31c.2,.09,.26,.21,.21,.35s-.17,.27-.35,.4c-.08,.05-.13,.1-.15,.15s.02,.1,.12,.16c.05,.04,.1,.08,.15,.11s.08,.08,.11,.15c0,.1-.04,.19-.13,.26s-.18,.15-.26,.23c-.15,.16-.22,.3-.23,.43s.1,.18,.32,.15h.33c.16,.02,.24,.09,.26,.19s-.05,.2-.22,.28c-.16,.03-.32,.06-.47,.1s-.27,.16-.38,.37c-.05,.04-.09,.06-.13,.05s-.08-.01-.12-.03c-.11-.06-.17-.03-.18,.09s-.01,.22,0,.29l.07,.07c.27,.02,.51-.01,.74-.09s.48-.12,.76-.12c.22-.05,.42-.1,.62-.13s.4-.04,.63-.01c.2-.02,.35,.03,.44,.14s.03,.22-.18,.33c-.38,.04-.73,.1-1.06,.19s-.68,.17-1.05,.26c-.16,.03-.32,.07-.48,.11s-.32,.12-.46,.25c-.07,.46-.1,.9-.08,1.31s.1,.87,.24,1.37c.02,.19-.02,.33-.14,.44s-.27,.11-.45,0c-.19-.14-.37-.25-.54-.34s-.35-.17-.53-.25c-.2-.05-.39-.09-.57-.13s-.37-.11-.58-.19c-.09-.02-.17-.02-.23,0s-.14,.07-.23,.14c-.04,.04-.08,.06-.13,.07s-.1,0-.15,0c-.21-.16-.31-.39-.31-.68s.13-.51,.38-.66c.05,0,.09,.02,.13,.06s.1,.07,.17,.11,.14,.04,.21,.02,.15-.04,.24-.06c.09-.08,.19-.14,.28-.18s.2-.07,.3-.08c.16-.04,.27-.02,.33,.07s.04,.2-.07,.35c-.08,.05-.16,.12-.25,.21s-.13,.17-.13,.26c.16,.09,.39,.13,.68,.11s.51-.1,.66-.25l.02-1.31c-.02-.12-.04-.19-.09-.22s-.11-.02-.19,.03c-.59,.18-1.13,.35-1.63,.52s-1.04,.32-1.62,.47c-.2,.08-.37,.16-.53,.24s-.33,.15-.52,.21c-.06,.02-.13,.04-.19,.04s-.14-.02-.23-.06c-.14-.33-.14-.58,0-.76s.38-.32,.73-.44c.15,0,.29-.04,.43-.09s.29-.15,.46-.29c.06-.05,.12-.07,.18-.06s.11,.04,.18,.11c.04,.02,.09,.03,.15,.03s.12-.01,.18-.03l.45-.07,1.97-.56c.19-.05,.29-.14,.32-.25s.04-.24,.03-.39c-.03-.05-.06-.09-.09-.09s-.08,0-.15,.02c-.15,.04-.3,.06-.46,.07s-.32,.02-.48,.02c-.05,0-.1,0-.15-.03s-.06-.06-.04-.11c-.02-.06,0-.11,.06-.15s.11-.07,.15-.08c.22-.02,.44-.13,.66-.33s.45-.4,.7-.61c.03-.05,.04-.09,.02-.11s-.06-.02-.13-.01c-.1,.02-.21,.04-.32,.06s-.21,.04-.32,.05c-.16-.03-.25-.09-.27-.19s.05-.16,.2-.19c.14,0,.29-.06,.44-.15s.3-.21,.45-.36c.04-.12,.04-.21-.01-.26s-.13-.07-.25-.04l-.63,.19c-.13,0-.22-.05-.28-.16s0-.2,.18-.26c.12-.03,.26-.07,.39-.12s.29-.1,.45-.13c.14-.05,.21-.16,.19-.35s-.09-.27-.24-.26c-.13,0-.26-.01-.38-.06s-.24-.08-.37-.11c-.11-.05-.16-.11-.15-.16s.07-.1,.2-.14c.07-.03,.14-.05,.22-.06s.15-.01,.22-.01c.09,0,.19-.02,.32-.06s.21-.11,.27-.19c0-.09,0-.16,.05-.21s.05-.1,.02-.14Zm-2.6-.59c.05-.03,.1-.05,.12-.06s.06,0,.11,.01l.52,.26c.15,.25,.23,.46,.23,.62s0,.38-.05,.64c-.05,.12-.12,.22-.23,.3s-.2,.19-.29,.3l-.05,.07c-.13,.38-.21,.75-.23,1.11s0,.75,.09,1.16c.05,.17,.06,.35,.05,.54s-.06,.38-.14,.56c-.08,.15-.18,.22-.3,.21s-.22-.09-.28-.23c-.11-.21-.17-.39-.18-.53s-.03-.32-.06-.52c-.02-.02-.03-.05-.02-.07s.03-.05,.04-.07l.02-.98s0-.06,0-.09-.02-.04-.04-.05l-.3,.35c-.2,.2-.38,.28-.53,.23s-.27-.19-.36-.42c-.03-.15-.03-.29,0-.43s.07-.28,.12-.44c0-.2,.06-.34,.15-.4s.21-.18,.36-.35c.22-.3,.42-.59,.61-.87s.4-.56,.63-.87Zm3.66,6.73h.07c.08-.03,.15-.04,.22-.02s.14,.03,.22,.04h.09c.36-.09,.66-.01,.9,.25s.38,.57,.44,.93c-.02,.2-.08,.32-.2,.35s-.25,0-.41-.07l-.7-.49c-.22-.16-.45-.31-.7-.46s-.23-.32,.07-.53Z"/>
  <path d="M32.25,2.22c.06-.05,.13-.07,.21-.07s.15,.02,.22,.05c.06,.04,.12,.08,.16,.13s.08,.11,.12,.18c.25,.29,.5,.56,.74,.8s.5,.5,.79,.77c.22,.16,.43,.31,.62,.44s.41,.27,.64,.43c.37,.13,.71,.21,1.04,.25s.67,.17,1.05,.41c.12,.08,.19,.17,.19,.28s-.08,.17-.24,.19c-.27,.04-.53,.06-.78,.05s-.51,0-.79,0c-.36-.09-.71-.29-1.05-.59s-.69-.6-1.06-.88c-.14-.14-.26-.29-.37-.43s-.23-.29-.38-.43c-.16-.17-.28-.27-.38-.28s-.23,.04-.39,.16c-.1,.06-.2,.14-.29,.24s-.18,.21-.28,.32c-.16,.12-.29,.23-.39,.31s-.2,.18-.29,.3c-.03,.02-.05,.04-.05,.07s.02,.04,.08,.02c.2-.09,.38-.18,.55-.25s.36-.14,.57-.2c.25-.14,.47-.19,.67-.13s.43,.12,.69,.21c.1,.06,.15,.14,.15,.24s-.05,.18-.15,.25c-.17,.07-.33,.14-.47,.21s-.3,.12-.46,.15c-.13,.05-.25,.1-.35,.15s-.22,.07-.35,.09c-.13,0-.26-.05-.39-.12s-.26-.13-.41-.19c-.06-.07-.13-.12-.2-.14s-.14-.02-.2,0l-.7,.82s-.06,.07-.05,.11,.05,.04,.12,.01c.11-.04,.22-.05,.34-.05s.21,.09,.29,.23c.05,.07,.1,.11,.16,.12s.12,0,.19-.02c.32-.12,.62-.25,.91-.38s.6-.27,.94-.42c.37-.18,.69-.25,.96-.2s.6,.21,.99,.5c.13,.09,.2,.19,.19,.3s-.04,.23-.1,.36c-.2,.22-.36,.45-.5,.69s-.31,.47-.51,.69h-.26c-.5,.1-.98,.22-1.44,.37s-.95,.31-1.46,.5c-.11,.03-.2,.03-.26-.02s-.09-.12-.09-.24v-.28c-.12-.14-.23-.27-.3-.38s-.17-.24-.28-.39c-.03-.15-.05-.3-.05-.45s-.02-.31-.04-.46c0-.08-.02-.12-.04-.14s-.06,0-.13,.07l-.54,.68c-.09,.09-.17,.17-.26,.24s-.16,.17-.23,.28c-.09,.07-.18,.12-.25,.13s-.15,.01-.25-.02c-.05-.02-.1-.02-.15-.02s-.11-.02-.18-.05c-.06-.16-.08-.33-.06-.52s.1-.36,.25-.51c.14-.1,.26-.2,.36-.3s.21-.22,.32-.38l1.92-2.79c.23-.25,.46-.46,.69-.63s.48-.3,.74-.4Zm1.1,6.16c.28-.02,.54,0,.78,.04s.49,.21,.77,.5v.61c-.02,.44-.02,.86-.02,1.27s-.03,.84-.09,1.29c-.03,.11-.08,.18-.13,.22s-.15,.04-.26-.01c-.11-.1-.2-.19-.28-.25s-.13-.16-.16-.29c-.06-.09-.12-.15-.18-.16s-.12,0-.2,.02c-.3,.08-.59,.14-.86,.19s-.55,.12-.86,.21c-.26,.11-.47,.1-.63-.02s-.33-.31-.5-.56c-.09-.13-.15-.26-.16-.37s-.02-.23,0-.36c.02-.24,.04-.47,.08-.68s.07-.43,.08-.66c.05-.19,.12-.3,.23-.33s.22,.02,.33,.17l.09,.05,1.34-.54c.11-.07,.21-.14,.32-.2s.21-.11,.32-.13Zm-1.41-.7c-.15-.03-.27-.14-.36-.34s-.16-.24-.21-.13l.02,.21c0,.22,.03,.38,.09,.47s.21,.02,.45-.21Zm1.38,1.36c-.17,.04-.39,.1-.66,.18s-.54,.19-.81,.34c-.17,.09-.21,.2-.12,.3s.21,.15,.35,.12l.49-.19c.14-.05,.3-.08,.47-.06s.34,.04,.52,.09c.11,.03,.16,.08,.16,.16s-.06,.15-.16,.22c-.27,.09-.53,.17-.78,.25s-.49,.25-.72,.5c-.07,.08-.1,.15-.08,.21s.08,.09,.17,.09c.12,0,.25-.03,.38-.07s.26-.09,.4-.14c.08-.07,.15-.1,.22-.08s.14,.03,.22,.04c.14,.05,.27,.02,.38-.07s.17-.22,.19-.38l-.12-1.36c-.04-.1-.09-.16-.15-.18s-.17,0-.35,.04Zm-1.22-1.99c.09-.09,.14-.21,.16-.36s-.05-.2-.21-.13l-.3,.16c-.09,.14-.08,.22,.05,.23s.23,.05,.3,.09Zm-.09,.61c.13-.02,.21-.07,.23-.15s0-.17-.06-.27l-.16,.42Zm1.52-.68s-.09,.02-.12,.05-.06,.07-.09,.12l-.28,.33c-.05,.07-.05,.11-.01,.12s.09,.02,.15,.02c.2-.03,.37-.1,.49-.21s.08-.25-.13-.42Zm-.3-.94c-.11,.03-.16,.09-.15,.19s.05,.16,.12,.21c.08-.05,.12-.14,.14-.26s-.02-.16-.12-.14Zm.61-.26c-.09,0-.16,.03-.21,.08s-.03,.12,.04,.21c.04,.08,.06,.14,.05,.19s-.01,.11-.03,.18c-.04,.12-.01,.21,.08,.25s.17,0,.25-.11c.06-.18,.11-.36,.13-.54s-.08-.27-.32-.25Z"/>
</svg>